<svg width="580" height="200" xmlns="http://www.w3.org/2000/svg">
 <!-- Created with Method Draw - http://github.com/duopixel/Method-Draw/ -->

 <g>
  <title>background</title>
  <rect fill="none" id="canvas_background" height="202" width="582" y="-1" x="-1"/>
  <g display="none" overflow="visible" y="0" x="0" height="100%" width="100%" id="canvasGrid">
   <rect fill="url(#gridpattern)" stroke-width="0" y="0" x="0" height="100%" width="100%"/>
  </g>
 </g>
 <g>
  <title>Layer 1</title>
  <g transform="matrix(0.7768513307898229,0,0,0.9266612348661839,-5.580053839095811,-269.40243952845077) " id="svg_5">
   <g id="svg_6">
    <path id="svg_7" d="m59.322431,344.96554c7.417,0.112 11.127,2.809 11.127,8.092c-0.113,2.474 -1.687,3.707 -4.722,3.707c-8.204,0 -16.243,2.475 -24.108,7.421c-3.936,2.696 -7.248,4.157 -9.946,4.385c-2.809,0 -5.17,-0.564 -7.08,-1.688c-2.024,-0.783 -3.148,-1.685 -3.373,-2.696c0,-0.786 0.393,-1.182 1.18,-1.182c3.71,0 9.33,-2.865 16.86,-8.599c7.641,-6.067 14.329,-9.213 20.062,-9.44zm-20.23,57.322c0.898,0 1.625,0.505 2.189,1.517c1.012,1.349 1.518,3.43 1.518,6.238c3.817,-6.744 7.528,-10.114 11.127,-10.114c4.384,0 8.769,2.134 13.15,6.406c2.25,-4.047 4.608,-8.095 7.083,-12.142c0.445,0 0.675,0.227 0.675,0.677c-4.498,17.195 -9.049,30.402 -13.656,39.618c-3.036,5.282 -5.228,7.923 -6.577,7.923c-1.239,0 -2.527,-0.843 -3.876,-2.527c-1.241,-2.587 -1.855,-4.778 -1.855,-6.576c0,-4.271 0.729,-9.55 2.192,-15.847c1.012,-4.048 1.517,-6.632 1.517,-7.755c0,-1.124 -1.012,-1.688 -3.035,-1.688c-1.579,0 -3.486,1.916 -5.734,5.733c-0.785,1.797 -1.459,3.148 -2.023,4.047c-0.228,2.812 -0.338,6.238 -0.338,10.283c0,2.699 0.675,5.563 2.024,8.601c1.573,3.033 2.36,4.943 2.36,5.729c0,3.373 -1.238,5.059 -3.709,5.059c-2.021,0 -4.664,-1.292 -7.923,-3.876c-2.587,-1.913 -3.878,-3.77 -3.878,-5.564c0.785,-2.472 1.407,-7.533 1.854,-15.173c0.561,-7.309 2.08,-13.375 4.554,-18.209c0.445,-1.459 1.236,-2.248 2.361,-2.36zm13.487,-34.394c6.513,0.112 9.778,2.587 9.778,7.418c0,2.022 -1.349,3.036 -4.047,3.036c-3.599,0 -7.14,0.674 -10.621,2.022c-1.8,0.562 -3.431,0.898 -4.891,1.011c-2.134,0 -4.157,-0.506 -6.067,-1.517c-1.579,-0.786 -2.474,-1.517 -2.698,-2.193c0,-0.447 0.168,-0.674 0.506,-0.674c2.023,0 4.721,-1.404 8.091,-4.214c3.71,-3.145 7.022,-4.777 9.949,-4.889zm2.022,15.173c6.07,0.112 9.106,2.472 9.106,7.081c-0.114,2.024 -1.349,3.036 -3.71,3.036c-4.047,0 -7.923,1.123 -11.632,3.37c-1.687,0.787 -3.318,1.239 -4.891,1.349c-1.914,0 -3.652,-0.394 -5.225,-1.18c-1.687,-0.562 -2.643,-1.18 -2.867,-1.854c0,-0.45 0.224,-0.677 0.675,-0.677c2.024,0 4.719,-1.741 8.092,-5.225c4.046,-3.707 7.526,-5.673 10.452,-5.9zm-8.767,-65.074c6.516,0 12.418,1.573 17.704,4.719c5.503,3.149 8.26,7.081 8.26,11.803c0,2.924 -1.012,4.382 -3.036,4.382c-6.298,0 -10.452,0.228 -12.476,0.674c-0.785,0.228 -1.576,0.337 -2.361,0.337l0,-0.337c1.122,-2.806 1.687,-4.945 1.687,-6.406c0,-1.91 -2.472,-4.944 -7.417,-9.104c-2.698,-2.359 -4.046,-3.82 -4.046,-4.385c0,-1.122 0.563,-1.683 1.685,-1.683zm40.126,82.606c0.899,0 2.192,2.699 3.879,8.095c1.456,6.295 2.189,13.261 2.189,20.906c0,3.48 -0.563,6.406 -1.686,8.766c-1.683,2.697 -3.37,4.045 -5.056,4.045c-1.35,0 -2.588,-0.843 -3.71,-2.527c-1.122,-1.239 -1.686,-2.865 -1.686,-4.891c0,-3.598 0.564,-7.137 1.686,-10.62c1.573,-6.854 2.698,-13.375 3.373,-19.558c0.223,-2.809 0.56,-4.216 1.011,-4.216zm49.228,-69.795c8.767,0.112 13.151,3.036 13.151,8.766c-0.23,3.148 -2.137,4.722 -5.734,4.722c-7.078,0 -14.051,1.011 -20.903,3.033c-0.675,4.722 -1.35,9.837 -2.023,15.345c2.361,-0.337 4.829,-0.506 7.419,-0.506c3.817,0 5.73,1.461 5.73,4.382c0,3.486 -4.216,6.238 -12.644,8.261c-10.903,1.913 -18.375,2.865 -22.422,2.865c-2.25,0 -4.326,-0.56 -6.239,-1.686c-1.576,-1.236 -2.419,-2.132 -2.527,-2.696c0,-1.236 1.119,-1.967 3.37,-2.191c4.047,-0.562 9.443,-2.19 16.186,-4.89c1.12,-0.446 2.079,-0.898 2.866,-1.349c0,-4.831 0.055,-9.213 0.168,-13.15c-4.497,1.913 -8.542,2.924 -12.138,3.036c-2.59,0 -5.059,-0.564 -7.42,-1.688c-1.796,-0.899 -2.808,-1.91 -3.032,-3.034c0,-0.783 0.445,-1.18 1.346,-1.18c4.608,0 11.405,-2.924 20.401,-8.769c0.444,-0.109 0.782,-0.225 1.011,-0.337c0.109,-10.898 0.168,-18.147 0.168,-21.746c0,-2.809 -0.674,-4.665 -2.023,-5.564c-1.011,-0.786 -1.576,-1.406 -1.686,-1.855c0,-1.796 1.458,-2.697 4.385,-2.697c2.805,0 5.562,0.955 8.259,2.868c3.036,1.685 4.553,4.213 4.553,7.586c0,2.135 -0.505,7.138 -1.517,15.002c4.047,-1.573 7.812,-2.415 11.295,-2.528zm-36.752,64.74c11.802,14.274 20.962,23.153 27.48,26.639c6.517,4.045 13.995,6.066 22.422,6.066c0.899,0 1.855,-0.505 2.867,-1.517c0.562,-0.446 0.844,-1.404 0.844,-2.865c0,-3.146 -3.149,-10.339 -9.444,-21.579l0,-0.675c16.41,13.825 24.615,23.156 24.615,27.987c0,3.033 -1.07,5.28 -3.201,6.743c-1.8,2.022 -5.227,3.034 -10.287,3.034c-15.063,0 -26.917,-3.371 -35.572,-10.115c-7.08,-5.283 -13.656,-16.074 -19.724,-32.37l0,-1.348zm26.974,-8.092c0.446,0 1.067,1.18 1.855,3.539c0.562,1.014 1.177,1.52 1.852,1.52c0.902,0 3.372,-1.239 7.419,-3.711l0,0.675c-3.262,8.092 -6.745,12.139 -10.452,12.139c-3.373,0 -5.06,-1.854 -5.06,-5.563c0,-2.472 0.562,-4.553 1.687,-6.238c1.237,-1.575 2.132,-2.361 2.699,-2.361zm23.941,-11.129c6.404,0 12.476,1.407 18.206,4.216c4.721,2.359 7.083,4.891 7.083,7.587c0,2.924 -1.579,4.385 -4.723,4.385c-4.157,0 -8.826,-1.239 -13.994,-3.711c-5.959,-3.708 -8.935,-7.193 -8.935,-10.451c0.001,-1.351 0.784,-2.026 2.363,-2.026z" fill="#FFFFFF"/>
    <path id="svg_8" d="m192.294431,451.02854c1.239,0 2.924,1.461 5.059,4.382c2.247,3.148 3.372,6.407 3.372,9.78c0,7.415 -1.746,14.667 -5.227,21.748c-2.024,4.154 -3.989,6.238 -5.899,6.238c-1.463,0 -3.266,-1.351 -5.397,-4.045c-1.575,-1.688 -2.36,-3.263 -2.36,-4.721c0,-1.464 0.505,-3.205 1.518,-5.228c4.945,-12.249 7.696,-20.962 8.259,-26.133c-0.001,-1.346 0.226,-2.021 0.675,-2.021zm9.106,-84.297c2.921,0 5.562,0.955 7.922,2.867c1.35,-1.011 3.091,-2.249 5.227,-3.71c6.178,-3.935 12.645,-6.912 19.388,-8.935c11.464,-3.373 22.648,-5.059 33.548,-5.059c2.809,0 6.179,1.854 10.119,5.564c3.597,3.935 5.393,7.584 5.393,10.957c0,1.8 -0.448,4.384 -1.35,7.758c-0.901,4.382 -1.913,10.282 -3.032,17.7c-2.361,18.435 -4.614,29.841 -6.745,34.223c-1.687,3.373 -3.372,5.062 -5.059,5.062c-2.135,0 -4.327,-1.124 -6.574,-3.373c-1.238,-1.012 -2.081,-2.362 -2.529,-4.045c-8.542,0.109 -16.802,0.955 -24.783,2.527c-4.494,0.675 -8.373,1.07 -11.632,1.18c-1.913,0 -3.652,-0.393 -5.225,-1.18c-1.687,-0.562 -2.643,-1.18 -2.866,-1.854c0,-0.449 0.444,-0.674 1.348,-0.674c4.045,0 10.116,-1.63 18.207,-4.891c8.539,-3.482 15.735,-5.336 21.583,-5.563c1.91,0 3.538,0.228 4.887,0.674c3.479,-20.004 5.227,-35.178 5.227,-45.52c0,-3.482 -1.518,-5.676 -4.553,-6.575c-3.035,-1.011 -6.465,-1.52 -10.283,-1.52c-7.42,0 -13.825,0.902 -19.222,2.697c-4.494,2.024 -9.213,4.33 -14.159,6.915c-1.578,1.011 -2.866,1.685 -3.879,2.022c0.562,1.575 0.844,3.092 0.844,4.553c0,4.834 0.107,9.271 0.337,13.319c0.107,3.482 0.223,9.721 0.337,18.712c3.817,-2.247 6.802,-4.719 8.935,-7.418c2.131,-2.584 4.154,-6.407 6.071,-11.463c-2.137,0.225 -3.878,0.337 -5.229,0.337c-1.912,0 -3.651,-0.449 -5.227,-1.351c-1.35,-1.121 -2.083,-1.91 -2.19,-2.359c0,-1.012 1.12,-1.627 3.37,-1.854c3.259,-0.446 7.251,-1.517 11.971,-3.201c0.563,-2.473 0.842,-4.272 0.842,-5.398c0,-3.596 -0.616,-6.686 -1.854,-9.27c-0.564,-1.014 -0.84,-1.629 -0.84,-1.856c0,-0.447 0.393,-0.843 1.177,-1.18c1.914,-0.562 3.651,-0.845 5.228,-0.845c2.247,0 3.818,0.505 4.722,1.519c1.346,1.461 2.021,3.433 2.021,5.901c0,1.686 -0.448,3.82 -1.347,6.407c-0.114,0.337 -0.23,0.618 -0.337,0.843c4.045,-1.012 8.429,-1.52 13.151,-1.52c3.369,0 5.056,1.014 5.056,3.036c0,3.485 -4.216,6.128 -12.646,7.926c-3.483,0.786 -6.404,1.346 -8.765,1.683c-0.567,1.915 -1.411,3.711 -2.531,5.398c5.734,0.672 11.069,2.079 16.017,4.213c5.283,3.034 7.924,5.846 7.924,8.43c0,2.472 -1.459,3.71 -4.382,3.71c-4.385,0 -9.386,-1.46 -15.006,-4.384c-4.276,-1.91 -7.14,-3.933 -8.599,-6.07c-0.564,0.787 -1.07,1.517 -1.516,2.191c-3.71,3.71 -9.047,6.803 -16.017,9.274l0,4.045c-0.451,4.834 -2.698,7.645 -6.745,8.432c-2.809,-0.901 -4.273,-4.16 -4.382,-9.78c0,-1.236 0.108,-2.416 0.337,-3.539c0.108,-1.91 0.277,-6.803 0.507,-14.67c0.337,-7.528 0.505,-13.935 0.505,-19.218c0,-2.924 -1.632,-5.506 -4.89,-7.755c-0.904,-0.45 -1.407,-1.012 -1.518,-1.686c0.001,-1.572 1.236,-2.359 3.711,-2.359zm6.742,78.228c3.479,0.227 7.811,3.539 12.981,9.946c14.049,17.195 26.579,25.795 37.595,25.795c4.723,0 9.162,-0.955 13.319,-2.867c2.361,-0.784 3.542,-2.304 3.542,-4.553c0,-2.919 -7.421,-9.494 -22.254,-19.724c-0.229,0.449 -0.451,0.732 -0.674,0.843c-2.59,2.024 -5.058,3.036 -7.419,3.036c-3.601,0 -6.406,-1.07 -8.429,-3.205c-2.698,-3.258 -4.047,-7.586 -4.047,-12.981c0,-0.896 0.228,-1.349 0.675,-1.349c4.271,2.472 8.201,3.71 11.801,3.71c3.142,0 6.347,-0.674 9.611,-2.024c11.351,-5.618 19.273,-8.427 23.771,-8.427c9.777,0 17.87,1.235 24.278,3.708c5.166,2.249 7.754,4.945 7.754,8.092c0,3.482 -1.294,5.508 -3.879,6.069c-3.937,1.349 -9.047,2.022 -15.339,2.022c-4.951,0 -7.42,-0.446 -7.42,-1.348c6.295,-3.82 9.44,-6.518 9.44,-8.093c0,-2.472 -4.947,-3.71 -14.833,-3.71c-3.148,0 -6.239,0.62 -9.274,1.854c-2.134,1.014 -6.181,3.879 -12.138,8.601c3.258,0.228 6.684,0.843 10.283,1.854c6.516,2.022 12.814,5.789 18.883,11.297c6.296,5.62 9.441,10.112 9.441,13.485c0,2.699 -2.471,5.508 -7.417,8.432c-9.44,4.719 -20.511,7.078 -33.214,7.078c-7.193,0 -14.389,-3.316 -21.579,-9.945c-9.217,-7.982 -18.268,-20.288 -27.144,-36.922c0,-0.448 0.564,-0.674 1.686,-0.674z" fill="#FFFFFF"/>
   </g>
   <g id="svg_9">
    <path id="svg_10" d="m56.189431,341.18854c7.417,0.113 11.127,2.811 11.127,8.093c-0.114,2.474 -1.687,3.709 -4.722,3.709c-8.205,0 -16.244,2.473 -24.108,7.419c-3.937,2.696 -7.249,4.158 -9.946,4.384c-2.809,0 -5.169,-0.563 -7.08,-1.688c-2.023,-0.784 -3.148,-1.686 -3.373,-2.696c0,-0.786 0.393,-1.182 1.18,-1.182c3.71,0 9.33,-2.866 16.86,-8.598c7.642,-6.068 14.329,-9.213 20.062,-9.441zm-20.23,57.321c0.898,0 1.625,0.506 2.189,1.519c1.012,1.348 1.518,3.43 1.518,6.236c3.817,-6.743 7.528,-10.114 11.127,-10.114c4.384,0 8.769,2.137 13.15,6.407c2.25,-4.048 4.608,-8.094 7.083,-12.141c0.445,0 0.675,0.227 0.675,0.675c-4.498,17.197 -9.048,30.404 -13.656,39.619c-3.036,5.284 -5.228,7.924 -6.577,7.924c-1.238,0 -2.527,-0.843 -3.875,-2.529c-1.242,-2.585 -1.855,-4.777 -1.855,-6.575c0,-4.272 0.73,-9.55 2.192,-15.846c1.012,-4.048 1.518,-6.633 1.518,-7.757c0,-1.122 -1.012,-1.687 -3.035,-1.687c-1.579,0 -3.486,1.914 -5.734,5.733c-0.785,1.797 -1.459,3.146 -2.023,4.047c-0.227,2.811 -0.338,6.237 -0.338,10.283c0,2.697 0.675,5.563 2.024,8.599c1.573,3.034 2.361,4.945 2.361,5.731c0,3.372 -1.239,5.058 -3.71,5.058c-2.021,0 -4.663,-1.292 -7.923,-3.876c-2.587,-1.913 -3.878,-3.768 -3.878,-5.564c0.784,-2.472 1.407,-7.531 1.854,-15.173c0.561,-7.308 2.079,-13.376 4.553,-18.208c0.444,-1.459 1.235,-2.246 2.36,-2.361zm13.487,-34.391c6.513,0.112 9.778,2.585 9.778,7.418c0,2.022 -1.349,3.034 -4.047,3.034c-3.599,0 -7.14,0.675 -10.621,2.023c-1.8,0.563 -3.431,0.899 -4.891,1.012c-2.134,0 -4.157,-0.505 -6.067,-1.518c-1.579,-0.785 -2.474,-1.518 -2.698,-2.192c0,-0.447 0.168,-0.674 0.506,-0.674c2.023,0 4.721,-1.405 8.091,-4.215c3.71,-3.146 7.022,-4.776 9.949,-4.888zm2.021,15.173c6.07,0.112 9.106,2.472 9.106,7.081c-0.114,2.023 -1.349,3.034 -3.71,3.034c-4.047,0 -7.923,1.124 -11.632,3.371c-1.687,0.787 -3.318,1.24 -4.891,1.35c-1.913,0 -3.652,-0.395 -5.225,-1.181c-1.687,-0.561 -2.643,-1.18 -2.867,-1.854c0,-0.448 0.224,-0.675 0.674,-0.675c2.024,0 4.719,-1.742 8.092,-5.226c4.048,-3.708 7.528,-5.675 10.453,-5.9zm-8.766,-65.076c6.516,0 12.417,1.573 17.704,4.719c5.503,3.148 8.26,7.081 8.26,11.803c0,2.924 -1.012,4.382 -3.036,4.382c-6.297,0 -10.452,0.227 -12.476,0.675c-0.785,0.227 -1.576,0.338 -2.361,0.338l0,-0.338c1.122,-2.808 1.687,-4.946 1.687,-6.406c0,-1.91 -2.472,-4.945 -7.417,-9.104c-2.698,-2.36 -4.046,-3.82 -4.046,-4.385c-0.001,-1.122 0.563,-1.684 1.685,-1.684zm40.125,82.608c0.899,0 2.192,2.698 3.879,8.094c1.457,6.296 2.189,13.262 2.189,20.905c0,3.482 -0.563,6.407 -1.686,8.767c-1.683,2.698 -3.37,4.046 -5.056,4.046c-1.35,0 -2.588,-0.843 -3.71,-2.529c-1.122,-1.237 -1.686,-2.865 -1.686,-4.889c0,-3.598 0.564,-7.137 1.686,-10.62c1.573,-6.854 2.699,-13.376 3.373,-19.558c0.224,-2.809 0.561,-4.216 1.011,-4.216zm49.229,-69.795c8.766,0.11 13.15,3.034 13.15,8.766c-0.229,3.147 -2.137,4.721 -5.734,4.721c-7.078,0 -14.051,1.011 -20.903,3.034c-0.675,4.721 -1.349,9.837 -2.023,15.344c2.361,-0.337 4.829,-0.506 7.419,-0.506c3.817,0 5.73,1.46 5.73,4.382c0,3.485 -4.216,6.238 -12.644,8.262c-10.904,1.911 -18.375,2.865 -22.423,2.865c-2.25,0 -4.326,-0.561 -6.239,-1.687c-1.576,-1.234 -2.419,-2.132 -2.527,-2.696c0,-1.236 1.119,-1.966 3.37,-2.191c4.047,-0.562 9.443,-2.19 16.186,-4.89c1.12,-0.447 2.079,-0.899 2.866,-1.349c0,-4.831 0.055,-9.213 0.168,-13.15c-4.497,1.912 -8.542,2.925 -12.138,3.036c-2.591,0 -5.06,-0.564 -7.42,-1.688c-1.796,-0.898 -2.808,-1.91 -3.032,-3.034c0,-0.784 0.445,-1.18 1.346,-1.18c4.608,0 11.406,-2.923 20.402,-8.768c0.444,-0.111 0.781,-0.226 1.011,-0.337c0.108,-10.899 0.168,-18.149 0.168,-21.747c0,-2.809 -0.674,-4.664 -2.024,-5.564c-1.011,-0.785 -1.576,-1.405 -1.686,-1.854c0,-1.797 1.457,-2.698 4.385,-2.698c2.805,0 5.562,0.955 8.259,2.867c3.036,1.686 4.553,4.214 4.553,7.587c0,2.135 -0.506,7.137 -1.517,15.004c4.049,-1.574 7.814,-2.419 11.297,-2.529zm-36.753,64.738c11.802,14.274 20.963,23.153 27.48,26.638c6.517,4.045 13.995,6.068 22.422,6.068c0.899,0 1.855,-0.505 2.867,-1.518c0.562,-0.447 0.844,-1.403 0.844,-2.865c0,-3.146 -3.148,-10.339 -9.444,-21.58l0,-0.674c16.41,13.825 24.615,23.155 24.615,27.986c0,3.034 -1.07,5.282 -3.201,6.744c-1.8,2.022 -5.227,3.033 -10.287,3.033c-15.063,0 -26.917,-3.37 -35.572,-10.114c-7.08,-5.283 -13.656,-16.073 -19.724,-32.37l0,-1.348zm26.975,-8.091c0.445,0 1.067,1.178 1.855,3.539c0.562,1.012 1.177,1.518 1.853,1.518c0.901,0 3.372,-1.236 7.419,-3.71l0,0.674c-3.262,8.094 -6.745,12.14 -10.452,12.14c-3.374,0 -5.06,-1.854 -5.06,-5.564c0,-2.47 0.562,-4.552 1.687,-6.238c1.237,-1.573 2.132,-2.359 2.698,-2.359zm23.941,-11.129c6.404,0 12.475,1.407 18.206,4.216c4.721,2.358 7.083,4.889 7.083,7.586c0,2.925 -1.58,4.384 -4.723,4.384c-4.157,0 -8.826,-1.236 -13.993,-3.71c-5.96,-3.708 -8.935,-7.192 -8.935,-10.452c0,-1.349 0.782,-2.024 2.362,-2.024z"/>
    <path id="svg_11" d="m189.160431,447.25254c1.239,0 2.924,1.461 5.059,4.382c2.247,3.147 3.372,6.407 3.372,9.779c0,7.416 -1.747,14.667 -5.227,21.749c-2.024,4.155 -3.989,6.237 -5.898,6.237c-1.463,0 -3.266,-1.35 -5.397,-4.045c-1.576,-1.687 -2.361,-3.262 -2.361,-4.722c0,-1.462 0.506,-3.203 1.518,-5.227c4.945,-12.25 7.696,-20.962 8.259,-26.133c0,-1.346 0.228,-2.02 0.675,-2.02zm9.106,-84.296c2.921,0 5.562,0.955 7.922,2.866c1.35,-1.011 3.091,-2.248 5.227,-3.71c6.178,-3.935 12.646,-6.912 19.388,-8.935c11.464,-3.374 22.648,-5.059 33.548,-5.059c2.809,0 6.178,1.854 10.118,5.563c3.597,3.936 5.393,7.586 5.393,10.959c0,1.799 -0.448,4.385 -1.349,7.756c-0.902,4.384 -1.913,10.285 -3.033,17.702c-2.361,18.435 -4.614,29.841 -6.745,34.223c-1.687,3.373 -3.372,5.06 -5.059,5.06c-2.135,0 -4.327,-1.122 -6.574,-3.373c-1.239,-1.011 -2.082,-2.36 -2.529,-4.045c-8.542,0.111 -16.802,0.955 -24.784,2.528c-4.494,0.674 -8.373,1.07 -11.632,1.18c-1.913,0 -3.651,-0.392 -5.225,-1.18c-1.687,-0.562 -2.643,-1.18 -2.866,-1.854c0,-0.448 0.444,-0.675 1.348,-0.675c4.045,0 10.116,-1.629 18.207,-4.89c8.539,-3.483 15.735,-5.337 21.583,-5.564c1.91,0 3.538,0.228 4.887,0.675c3.479,-20.005 5.228,-35.177 5.228,-45.519c0,-3.482 -1.518,-5.678 -4.553,-6.576c-3.035,-1.012 -6.465,-1.519 -10.283,-1.519c-7.421,0 -13.825,0.901 -19.222,2.697c-4.494,2.024 -9.213,4.329 -14.159,6.913c-1.578,1.013 -2.867,1.687 -3.879,2.024c0.562,1.575 0.844,3.092 0.844,4.551c0,4.834 0.107,9.273 0.337,13.319c0.107,3.484 0.223,9.723 0.336,18.714c3.818,-2.247 6.802,-4.721 8.935,-7.418c2.131,-2.586 4.154,-6.407 6.071,-11.464c-2.137,0.226 -3.878,0.337 -5.229,0.337c-1.912,0 -3.651,-0.448 -5.227,-1.35c-1.35,-1.122 -2.083,-1.91 -2.189,-2.359c0,-1.012 1.12,-1.628 3.369,-1.854c3.26,-0.448 7.252,-1.519 11.971,-3.204c0.563,-2.471 0.843,-4.271 0.843,-5.396c0,-3.596 -0.617,-6.686 -1.855,-9.271c-0.564,-1.013 -0.84,-1.628 -0.84,-1.855c0,-0.448 0.393,-0.844 1.177,-1.181c1.914,-0.563 3.651,-0.844 5.229,-0.844c2.247,0 3.817,0.505 4.722,1.519c1.345,1.461 2.021,3.431 2.021,5.9c0,1.687 -0.448,3.821 -1.347,6.406c-0.114,0.338 -0.23,0.619 -0.337,0.845c4.045,-1.013 8.43,-1.52 13.151,-1.52c3.37,0 5.056,1.013 5.056,3.036c0,3.485 -4.216,6.127 -12.645,7.925c-3.483,0.786 -6.404,1.347 -8.765,1.684c-0.567,1.914 -1.411,3.711 -2.53,5.397c5.733,0.673 11.069,2.08 16.017,4.213c5.283,3.035 7.924,5.845 7.924,8.431c0,2.472 -1.459,3.709 -4.382,3.709c-4.384,0 -9.386,-1.459 -15.006,-4.383c-4.276,-1.912 -7.14,-3.934 -8.599,-6.07c-0.564,0.787 -1.07,1.517 -1.515,2.191c-3.71,3.71 -9.047,6.803 -16.018,9.273l0,4.046c-0.451,4.833 -2.698,7.645 -6.745,8.43c-2.809,-0.899 -4.273,-4.158 -4.381,-9.779c0,-1.236 0.108,-2.416 0.337,-3.54c0.108,-1.909 0.277,-6.801 0.507,-14.668c0.337,-7.528 0.505,-13.935 0.505,-19.22c0,-2.922 -1.632,-5.505 -4.89,-7.753c-0.904,-0.45 -1.407,-1.012 -1.518,-1.687c-0.001,-1.571 1.235,-2.357 3.709,-2.357zm6.743,78.227c3.479,0.227 7.811,3.539 12.981,9.945c14.049,17.194 26.58,25.795 37.595,25.795c4.723,0 9.162,-0.954 13.319,-2.866c2.361,-0.785 3.542,-2.304 3.542,-4.553c0,-2.919 -7.42,-9.496 -22.253,-19.724c-0.23,0.449 -0.451,0.731 -0.674,0.843c-2.59,2.023 -5.059,3.035 -7.419,3.035c-3.6,0 -6.405,-1.069 -8.429,-3.204c-2.698,-3.26 -4.047,-7.586 -4.047,-12.982c0,-0.897 0.227,-1.348 0.675,-1.348c4.271,2.472 8.201,3.709 11.801,3.709c3.142,0 6.347,-0.675 9.611,-2.023c11.351,-5.619 19.273,-8.429 23.771,-8.429c9.778,0 17.87,1.237 24.277,3.708c5.166,2.25 7.754,4.947 7.754,8.094c0,3.482 -1.293,5.507 -3.879,6.069c-3.936,1.348 -9.047,2.021 -15.339,2.021c-4.951,0 -7.42,-0.447 -7.42,-1.348c6.296,-3.819 9.44,-6.517 9.44,-8.093c0,-2.471 -4.948,-3.709 -14.833,-3.709c-3.148,0 -6.24,0.619 -9.274,1.854c-2.133,1.013 -6.181,3.879 -12.138,8.6c3.259,0.227 6.684,0.844 10.283,1.854c6.515,2.022 12.813,5.789 18.883,11.296c6.295,5.621 9.44,10.113 9.44,13.486c0,2.698 -2.47,5.507 -7.416,8.431c-9.441,4.719 -20.512,7.079 -33.214,7.079c-7.193,0 -14.389,-3.316 -21.579,-9.945c-9.217,-7.984 -18.268,-20.288 -27.144,-36.922c-0.001,-0.446 0.564,-0.673 1.686,-0.673z"/>
   </g>
   <g id="svg_12">
    <rect id="svg_13" height="61.259" width="407.138" fill="none" y="335.49054" x="335.027431"/>
    <text x="-28.036569" y="-35.56046" id="svg_14" font-size="62.7554" font-family="'HanWangLiSuMedium'" transform="matrix(1,0,0,1,363.0645,421.3037) ">用心.服務.關懷</text>
    <rect id="svg_15" height="61.26" width="407.138" fill="none" y="396.74954" x="335.027431"/>
    <text x="-28.036569" y="-35.56046" id="svg_16" font-size="62.7554" font-family="'HanWangLiSuMedium'" transform="matrix(1,0,0,1,363.0645,482.5635) ">誠信.專業.效率</text>
   </g>
  </g>
  <g transform="matrix(0.025082266165014966,0,0,0.025082266165014966,0,0) " id="svg_17">
   <path id="svg_18" d="m-1798.896,-355.408c9.4,0.142 14.101,3.56 14.101,10.255c-0.144,3.136 -2.137,4.698 -5.984,4.698c-10.397,0 -20.585,3.136 -30.552,9.404c-4.989,3.417 -9.186,5.269 -12.605,5.556c-3.559,0 -6.551,-0.715 -8.972,-2.139c-2.564,-0.993 -3.99,-2.136 -4.273,-3.417c0,-0.997 0.497,-1.499 1.495,-1.499c4.702,0 11.824,-3.63 21.367,-10.895c9.683,-7.689 18.157,-11.675 25.423,-11.963zm-25.637,72.641c1.138,0 2.06,0.642 2.774,1.923c1.282,1.708 1.923,4.346 1.923,7.905c4.837,-8.546 9.54,-12.817 14.101,-12.817c5.557,0 11.112,2.705 16.666,8.119c2.852,-5.13 5.839,-10.259 8.975,-15.389c0.564,0 0.855,0.289 0.855,0.858c-5.701,21.792 -11.467,38.528 -17.307,50.207c-3.847,6.695 -6.625,10.041 -8.334,10.041c-1.57,0 -3.202,-1.067 -4.912,-3.202c-1.573,-3.279 -2.351,-6.056 -2.351,-8.334c0,-5.413 0.925,-12.103 2.778,-20.083c1.283,-5.129 1.923,-8.403 1.923,-9.827s-1.282,-2.139 -3.846,-2.139c-2.001,0 -4.418,2.427 -7.267,7.265c-0.994,2.278 -1.85,3.989 -2.563,5.129c-0.288,3.563 -0.428,7.906 -0.428,13.031c0,3.42 0.854,7.052 2.564,10.899c1.993,3.845 2.992,6.266 2.992,7.261c0,4.275 -1.57,6.411 -4.702,6.411c-2.56,0 -5.91,-1.638 -10.041,-4.912c-3.278,-2.424 -4.914,-4.776 -4.914,-7.052c0.995,-3.132 1.783,-9.546 2.35,-19.229c0.711,-9.261 2.635,-16.95 5.771,-23.075c0.564,-1.847 1.567,-2.847 2.993,-2.99zm17.092,-43.586c8.252,0.143 12.392,3.278 12.392,9.4c0,2.564 -1.71,3.849 -5.129,3.849c-4.562,0 -9.049,0.854 -13.46,2.563c-2.281,0.712 -4.348,1.139 -6.198,1.281c-2.703,0 -5.268,-0.641 -7.688,-1.922c-2.001,-0.997 -3.136,-1.922 -3.42,-2.78c0,-0.566 0.213,-0.854 0.642,-0.854c2.563,0 5.983,-1.78 10.253,-5.34c4.702,-3.987 8.898,-6.054 12.608,-6.197zm2.562,19.23c7.692,0.142 11.539,3.132 11.539,8.973c-0.144,2.566 -1.709,3.849 -4.701,3.849c-5.129,0 -10.041,1.423 -14.742,4.271c-2.138,0.996 -4.205,1.57 -6.198,1.709c-2.425,0 -4.628,-0.498 -6.621,-1.495c-2.138,-0.713 -3.35,-1.495 -3.634,-2.35c0,-0.569 0.284,-0.858 0.855,-0.858c2.565,0 5.98,-2.206 10.254,-6.62c5.13,-4.701 9.541,-7.192 13.248,-7.479zm-11.11,-82.468c8.257,0 15.737,1.993 22.436,5.979c6.974,3.99 10.467,8.974 10.467,14.958c0,3.705 -1.282,5.553 -3.847,5.553c-7.981,0 -13.246,0.288 -15.81,0.854c-0.994,0.287 -1.997,0.427 -2.992,0.427l0,-0.427c1.422,-3.557 2.138,-6.269 2.138,-8.12c0,-2.42 -3.133,-6.265 -9.4,-11.536c-3.419,-2.99 -5.128,-4.841 -5.128,-5.556c0,-1.42 0.714,-2.132 2.136,-2.132zm50.851,104.686c1.138,0 2.778,3.421 4.915,10.259c1.846,7.976 2.774,16.805 2.774,26.492c0,4.412 -0.715,8.12 -2.137,11.11c-2.134,3.418 -4.271,5.125 -6.408,5.125c-1.709,0 -3.279,-1.067 -4.701,-3.202c-1.422,-1.57 -2.137,-3.632 -2.137,-6.198c0,-4.559 0.714,-9.044 2.137,-13.458c1.994,-8.687 3.419,-16.951 4.274,-24.785c0.284,-3.56 0.711,-5.343 1.283,-5.343zm62.386,-88.45c11.109,0.143 16.665,3.848 16.665,11.109c-0.291,3.989 -2.709,5.982 -7.267,5.982c-8.97,0 -17.806,1.282 -26.489,3.846c-0.856,5.982 -1.71,12.465 -2.565,19.444c2.992,-0.427 6.12,-0.64 9.402,-0.64c4.838,0 7.262,1.851 7.262,5.553c0,4.417 -5.343,7.905 -16.023,10.469c-13.818,2.423 -23.287,3.63 -28.416,3.63c-2.852,0 -5.482,-0.708 -7.906,-2.135c-1.998,-1.567 -3.066,-2.702 -3.202,-3.418c0,-1.565 1.418,-2.491 4.27,-2.776c5.129,-0.712 11.968,-2.777 20.513,-6.197c1.419,-0.565 2.634,-1.14 3.632,-1.709c0,-6.122 0.07,-11.675 0.214,-16.665c-5.699,2.424 -10.824,3.706 -15.382,3.848c-3.283,0 -6.412,-0.716 -9.403,-2.139c-2.277,-1.14 -3.56,-2.421 -3.843,-3.845c0,-0.993 0.564,-1.494 1.707,-1.494c5.839,0 14.454,-3.706 25.854,-11.113c0.563,-0.14 0.99,-0.285 1.282,-0.428c0.137,-13.812 0.213,-22.998 0.213,-27.558c0,-3.56 -0.854,-5.912 -2.564,-7.052c-1.282,-0.997 -1.997,-1.783 -2.138,-2.353c0,-2.274 1.848,-3.417 5.558,-3.417c3.555,0 7.048,1.21 10.467,3.634c3.848,2.136 5.77,5.34 5.77,9.614c0,2.706 -0.641,9.045 -1.922,19.012c5.125,-1.993 9.896,-3.06 14.311,-3.202zm-46.576,82.042c14.956,18.09 26.566,29.342 34.825,33.759c8.258,5.126 17.735,7.688 28.416,7.688c1.139,0 2.351,-0.641 3.633,-1.923c0.711,-0.565 1.069,-1.779 1.069,-3.631c0,-3.986 -3.99,-13.103 -11.969,-27.348l0,-0.854c20.797,17.52 31.195,29.344 31.195,35.466c0,3.846 -1.356,6.692 -4.057,8.548c-2.281,2.563 -6.624,3.844 -13.036,3.844c-19.09,0 -34.111,-4.271 -45.08,-12.817c-8.972,-6.696 -17.306,-20.372 -24.996,-41.024l0,-1.708zm34.184,-10.254c0.564,0 1.353,1.494 2.351,4.485c0.712,1.285 1.492,1.925 2.348,1.925c1.142,0 4.273,-1.569 9.402,-4.701l0,0.854c-4.134,10.255 -8.548,15.384 -13.246,15.384c-4.274,0 -6.412,-2.35 -6.412,-7.052c0,-3.133 0.712,-5.77 2.137,-7.906c1.568,-1.993 2.702,-2.989 3.42,-2.989zm30.34,-14.104c8.116,0 15.81,1.783 23.071,5.344c5.983,2.99 8.977,6.196 8.977,9.614c0,3.705 -2.002,5.556 -5.985,5.556c-5.268,0 -11.185,-1.569 -17.733,-4.701c-7.553,-4.699 -11.323,-9.116 -11.323,-13.245c0,-1.712 0.991,-2.568 2.993,-2.568z" fill="#FFFFFF"/>
   <path id="svg_19" d="m-1632.384,-239.997c1.569,0 3.706,1.852 6.411,5.554c2.848,3.989 4.273,8.119 4.273,12.394c0,9.397 -2.213,18.588 -6.624,27.562c-2.565,5.265 -5.055,7.905 -7.476,7.905c-1.854,0 -4.139,-1.711 -6.839,-5.125c-1.997,-2.14 -2.992,-4.136 -2.992,-5.984c0,-1.854 0.641,-4.061 1.924,-6.623c6.267,-15.523 9.753,-26.565 10.467,-33.118c0,-1.711 0.288,-2.565 0.856,-2.565zm11.54,-106.827c3.702,0 7.048,1.21 10.04,3.634c1.71,-1.281 3.917,-2.851 6.624,-4.702c7.83,-4.987 16.025,-8.76 24.57,-11.323c14.528,-4.274 28.702,-6.411 42.515,-6.411c3.56,0 7.829,2.351 12.823,7.053c4.558,4.986 6.834,9.61 6.834,13.886c0,2.281 -0.567,5.556 -1.71,9.83c-1.142,5.554 -2.423,13.032 -3.842,22.433c-2.992,23.361 -5.848,37.816 -8.548,43.37c-2.138,4.274 -4.274,6.413 -6.411,6.413c-2.705,0 -5.483,-1.424 -8.331,-4.274c-1.569,-1.281 -2.638,-2.994 -3.206,-5.126c-10.824,0.139 -21.293,1.211 -31.407,3.204c-5.696,0.854 -10.611,1.355 -14.742,1.494c-2.424,0 -4.627,-0.498 -6.621,-1.494c-2.137,-0.713 -3.35,-1.496 -3.632,-2.35c0,-0.569 0.563,-0.854 1.708,-0.854c5.126,0 12.82,-2.065 23.073,-6.197c10.821,-4.414 19.94,-6.763 27.351,-7.051c2.421,0 4.484,0.288 6.194,0.854c4.41,-25.352 6.624,-44.58 6.624,-57.687c0,-4.414 -1.923,-7.194 -5.77,-8.332c-3.846,-1.282 -8.193,-1.927 -13.032,-1.927c-9.403,0 -17.52,1.144 -24.359,3.418c-5.695,2.566 -11.676,5.488 -17.944,8.764c-2,1.281 -3.632,2.136 -4.915,2.563c0.712,1.997 1.069,3.919 1.069,5.77c0,6.126 0.136,11.75 0.427,16.88c0.136,4.414 0.283,12.319 0.427,23.713c4.838,-2.847 8.62,-5.979 11.323,-9.399c2.701,-3.275 5.265,-8.12 7.693,-14.527c-2.708,0.285 -4.915,0.427 -6.625,0.427c-2.424,0 -4.628,-0.569 -6.625,-1.711c-1.71,-1.421 -2.639,-2.421 -2.775,-2.991c0,-1.28 1.419,-2.061 4.271,-2.349c4.13,-0.566 9.19,-1.923 15.17,-4.058c0.714,-3.133 1.067,-5.414 1.067,-6.842c0,-4.557 -0.781,-8.472 -2.351,-11.746c-0.715,-1.285 -1.064,-2.065 -1.064,-2.353c0,-0.566 0.498,-1.068 1.492,-1.496c2.425,-0.711 4.627,-1.07 6.625,-1.07c2.848,0 4.838,0.641 5.984,1.925c1.706,1.852 2.561,4.35 2.561,7.479c0,2.135 -0.568,4.841 -1.707,8.118c-0.144,0.428 -0.291,0.783 -0.427,1.068c5.125,-1.281 10.682,-1.926 16.665,-1.926c4.27,0 6.407,1.285 6.407,3.848c0,4.418 -5.342,7.767 -16.024,10.045c-4.414,0.997 -8.116,1.705 -11.108,2.132c-0.718,2.428 -1.788,4.702 -3.207,6.842c7.267,0.851 14.028,2.634 20.298,5.339c6.695,3.846 10.041,7.408 10.041,10.683c0,3.132 -1.849,4.702 -5.553,4.702c-5.557,0 -11.894,-1.852 -19.016,-5.557c-5.419,-2.42 -9.048,-4.983 -10.898,-7.691c-0.715,0.996 -1.355,1.922 -1.921,2.776c-4.702,4.702 -11.465,8.62 -20.298,11.753l0,5.126c-0.572,6.126 -3.418,9.689 -8.548,10.686c-3.56,-1.143 -5.415,-5.271 -5.553,-12.394c0,-1.566 0.138,-3.062 0.427,-4.486c0.138,-2.421 0.352,-8.62 0.643,-18.591c0.427,-9.54 0.641,-17.658 0.641,-24.354c0,-3.705 -2.067,-6.977 -6.197,-9.827c-1.146,-0.569 -1.784,-1.281 -1.923,-2.137c0.002,-1.998 1.567,-2.995 4.703,-2.995zm8.545,99.136c4.409,0.288 9.899,4.485 16.45,12.604c17.805,21.792 33.685,32.691 47.645,32.691c5.985,0 11.611,-1.21 16.879,-3.635c2.992,-0.993 4.489,-2.919 4.489,-5.77c0,-3.699 -9.404,-12.031 -28.203,-24.995c-0.292,0.57 -0.571,0.929 -0.854,1.067c-3.283,2.567 -6.411,3.849 -9.403,3.849c-4.563,0 -8.118,-1.356 -10.683,-4.062c-3.419,-4.13 -5.128,-9.615 -5.128,-16.452c0,-1.136 0.288,-1.709 0.856,-1.709c5.412,3.133 10.392,4.702 14.955,4.702c3.981,0 8.043,-0.854 12.181,-2.566c14.384,-7.119 24.424,-10.679 30.125,-10.679c12.391,0 22.646,1.566 30.767,4.699c6.546,2.851 9.826,6.268 9.826,10.255c0,4.414 -1.64,6.979 -4.917,7.691c-4.987,1.709 -11.464,2.563 -19.438,2.563c-6.274,0 -9.404,-0.566 -9.404,-1.709c7.979,-4.841 11.964,-8.258 11.964,-10.255c0,-3.132 -6.27,-4.702 -18.798,-4.702c-3.991,0 -7.908,0.786 -11.754,2.35c-2.703,1.285 -7.833,4.915 -15.382,10.899c4.129,0.287 8.471,1.068 13.032,2.349c8.257,2.563 16.239,7.337 23.931,14.317c7.978,7.122 11.964,12.814 11.964,17.089c0,3.42 -3.132,6.98 -9.399,10.685c-11.964,5.98 -25.993,8.971 -42.091,8.971c-9.116,0 -18.235,-4.203 -27.346,-12.604c-11.681,-10.116 -23.151,-25.711 -34.4,-46.791c-0.003,-0.564 0.714,-0.852 2.136,-0.852z" fill="#FFFFFF"/>
   <g id="svg_20">
    <path id="svg_21" d="m-1804.04,-361.383c9.342,0.143 14.015,3.541 14.015,10.191c-0.143,3.117 -2.124,4.673 -5.947,4.673c-10.335,0 -20.46,3.113 -30.366,9.346c-4.959,3.398 -9.13,5.237 -12.528,5.522c-3.538,0 -6.511,-0.71 -8.917,-2.124c-2.549,-0.988 -3.966,-2.124 -4.248,-3.398c0,-0.988 0.494,-1.486 1.486,-1.486c4.673,0 11.752,-3.611 21.237,-10.833c9.623,-7.643 18.046,-11.605 25.268,-11.891zm-25.481,72.198c1.132,0 2.047,0.638 2.758,1.912c1.274,1.699 1.911,4.321 1.911,7.858c4.809,-8.496 9.481,-12.74 14.015,-12.74c5.522,0 11.045,2.691 16.564,8.067c2.833,-5.098 5.804,-10.191 8.921,-15.289c0.56,0 0.85,0.286 0.85,0.85c-5.666,21.661 -11.396,38.295 -17.201,49.903c-3.823,6.654 -6.584,9.983 -8.284,9.983c-1.56,0 -3.182,-1.063 -4.881,-3.187c-1.564,-3.259 -2.337,-6.021 -2.337,-8.283c0,-5.384 0.919,-12.03 2.762,-19.959c1.274,-5.098 1.911,-8.356 1.911,-9.771c0,-1.413 -1.274,-2.124 -3.824,-2.124c-1.988,0 -4.39,2.41 -7.221,7.222c-0.988,2.264 -1.838,3.963 -2.549,5.098c-0.285,3.538 -0.425,7.855 -0.425,12.949c0,3.398 0.85,7.01 2.549,10.833c1.981,3.823 2.974,6.229 2.974,7.222c0,4.244 -1.56,6.368 -4.673,6.368c-2.545,0 -5.874,-1.63 -9.979,-4.882c-3.259,-2.409 -4.885,-4.746 -4.885,-7.009c0.989,-3.113 1.772,-9.485 2.336,-19.112c0.707,-9.203 2.619,-16.85 5.735,-22.937c0.56,-1.836 1.556,-2.825 2.973,-2.972zm16.988,-43.315c8.203,0.14 12.316,3.256 12.316,9.343c0,2.545 -1.699,3.819 -5.098,3.819c-4.534,0 -8.994,0.85 -13.377,2.549c-2.267,0.71 -4.321,1.135 -6.16,1.274c-2.688,0 -5.236,-0.638 -7.643,-1.912c-1.988,-0.988 -3.116,-1.911 -3.398,-2.761c0,-0.564 0.212,-0.85 0.637,-0.85c2.549,0 5.947,-1.766 10.191,-5.307c4.674,-3.961 8.845,-6.015 12.532,-6.155zm2.546,19.109c7.646,0.143 11.47,3.112 11.47,8.921c-0.143,2.549 -1.699,3.823 -4.673,3.823c-5.098,0 -9.979,1.413 -14.652,4.244c-2.124,0.992 -4.179,1.561 -6.16,1.699c-2.409,0 -4.6,-0.494 -6.581,-1.486c-2.124,-0.707 -3.329,-1.487 -3.611,-2.337c0,-0.563 0.282,-0.85 0.85,-0.85c2.549,0 5.943,-2.193 10.191,-6.581c5.098,-4.672 9.482,-7.147 13.166,-7.433zm-11.042,-81.965c8.207,0 15.641,1.981 22.299,5.944c6.933,3.966 10.404,8.917 10.404,14.864c0,3.684 -1.274,5.522 -3.823,5.522c-7.933,0 -13.166,0.285 -15.714,0.85c-0.989,0.285 -1.985,0.425 -2.974,0.425l0,-0.425c1.414,-3.538 2.124,-6.233 2.124,-8.071c0,-2.406 -3.113,-6.229 -9.342,-11.466c-3.398,-2.974 -5.098,-4.813 -5.098,-5.522c0,-1.414 0.711,-2.121 2.124,-2.121zm50.541,104.047c1.131,0 2.761,3.398 4.885,10.195c1.834,7.933 2.757,16.707 2.757,26.331c0,4.387 -0.71,8.071 -2.124,11.045c-2.12,3.398 -4.244,5.098 -6.368,5.098c-1.699,0 -3.259,-1.063 -4.673,-3.187c-1.414,-1.56 -2.124,-3.61 -2.124,-6.159c0,-4.534 0.71,-8.99 2.124,-13.378c1.981,-8.632 3.398,-16.85 4.248,-24.635c0.283,-3.537 0.708,-5.31 1.275,-5.31zm62.007,-87.912c11.042,0.143 16.564,3.823 16.564,11.045c-0.289,3.962 -2.691,5.943 -7.222,5.943c-8.917,0 -17.699,1.274 -26.331,3.823c-0.85,5.943 -1.699,12.389 -2.549,19.325c2.974,-0.425 6.082,-0.638 9.346,-0.638c4.808,0 7.218,1.839 7.218,5.522c0,4.388 -5.311,7.855 -15.927,10.404c-13.733,2.406 -23.145,3.607 -28.242,3.607c-2.834,0 -5.449,-0.703 -7.858,-2.124c-1.985,-1.553 -3.047,-2.685 -3.183,-3.395c0,-1.557 1.41,-2.476 4.244,-2.762c5.098,-0.707 11.895,-2.758 20.387,-6.156c1.41,-0.563 2.619,-1.135 3.611,-1.699c0,-6.086 0.069,-11.608 0.212,-16.567c-5.665,2.41 -10.759,3.685 -15.289,3.823c-3.263,0 -6.372,-0.706 -9.346,-2.124c-2.263,-1.128 -3.537,-2.402 -3.819,-3.819c0,-0.988 0.56,-1.486 1.695,-1.486c5.805,0 14.367,-3.681 25.697,-11.042c0.561,-0.139 0.985,-0.285 1.275,-0.425c0.135,-13.732 0.212,-22.862 0.212,-27.393c0,-3.537 -0.85,-5.874 -2.549,-7.009c-1.274,-0.989 -1.984,-1.772 -2.124,-2.337c0,-2.263 1.835,-3.398 5.522,-3.398c3.535,0 7.006,1.201 10.405,3.611c3.823,2.124 5.735,5.31 5.735,9.558c0,2.688 -0.637,8.987 -1.912,18.896c5.098,-1.978 9.84,-3.04 14.228,-3.183zm-46.293,81.544c14.864,17.978 26.404,29.165 34.614,33.553c8.207,5.094 17.626,7.643 28.242,7.643c1.132,0 2.336,-0.638 3.611,-1.912c0.707,-0.563 1.062,-1.765 1.062,-3.606c0,-3.963 -3.966,-13.026 -11.895,-27.185l0,-0.85c20.669,17.417 31.003,29.169 31.003,35.252c0,3.823 -1.348,6.657 -4.032,8.496c-2.267,2.549 -6.585,3.823 -12.957,3.823c-18.973,0 -33.903,-4.248 -44.806,-12.744c-8.917,-6.65 -17.201,-20.244 -24.844,-40.771l0,-1.699l0.002,0zm33.977,-10.191c0.56,0 1.344,1.486 2.336,4.46c0.707,1.274 1.483,1.912 2.333,1.912c1.135,0 4.248,-1.561 9.346,-4.673l0,0.85c-4.109,10.191 -8.496,15.285 -13.166,15.285c-4.248,0 -6.372,-2.332 -6.372,-7.005c0,-3.113 0.707,-5.731 2.124,-7.855c1.557,-1.986 2.685,-2.974 3.399,-2.974zm30.154,-14.019c8.067,0 15.714,1.772 22.932,5.31c5.947,2.974 8.921,6.16 8.921,9.559c0,3.684 -1.989,5.522 -5.947,5.522c-5.237,0 -11.118,-1.561 -17.625,-4.673c-7.508,-4.673 -11.254,-9.061 -11.254,-13.169c-0.001,-1.699 0.985,-2.549 2.973,-2.549z"/>
    <path id="svg_22" d="m-1636.554,-244.111c1.56,0 3.684,1.843 6.372,5.522c2.831,3.963 4.248,8.071 4.248,12.316c0,9.342 -2.201,18.475 -6.584,27.396c-2.549,5.233 -5.024,7.855 -7.431,7.855c-1.842,0 -4.113,-1.699 -6.797,-5.094c-1.984,-2.124 -2.974,-4.109 -2.974,-5.947c0,-1.842 0.638,-4.036 1.912,-6.585c6.229,-15.428 9.693,-26.403 10.404,-32.915c0.001,-1.699 0.286,-2.548 0.85,-2.548zm11.47,-106.175c3.68,0 7.005,1.204 9.979,3.61c1.7,-1.274 3.894,-2.831 6.585,-4.673c7.782,-4.955 15.926,-8.705 24.419,-11.254c14.439,-4.248 28.527,-6.372 42.257,-6.372c3.538,0 7.782,2.337 12.744,7.01c4.53,4.958 6.793,9.555 6.793,13.803c0,2.267 -0.563,5.519 -1.699,9.767c-1.135,5.522 -2.409,12.956 -3.819,22.299c-2.974,23.221 -5.812,37.584 -8.496,43.106c-2.124,4.248 -4.248,6.372 -6.372,6.372c-2.688,0 -5.449,-1.414 -8.28,-4.248c-1.56,-1.274 -2.622,-2.974 -3.186,-5.098c-10.76,0.143 -21.164,1.205 -31.216,3.186c-5.662,0.85 -10.547,1.348 -14.652,1.487c-2.41,0 -4.6,-0.494 -6.581,-1.487c-2.124,-0.706 -3.329,-1.486 -3.61,-2.336c0,-0.564 0.56,-0.85 1.699,-0.85c5.094,0 12.74,-2.051 22.932,-6.156c10.756,-4.387 19.819,-6.724 27.184,-7.009c2.406,0 4.457,0.285 6.156,0.85c4.384,-25.199 6.585,-44.309 6.585,-57.334c0,-4.388 -1.912,-7.148 -5.735,-8.28c-3.823,-1.274 -8.145,-1.912 -12.953,-1.912c-9.346,0 -17.414,1.136 -24.211,3.396c-5.661,2.549 -11.604,5.452 -17.834,8.704c-1.988,1.274 -3.611,2.124 -4.885,2.549c0.707,1.985 1.063,3.896 1.063,5.735c0,6.086 0.135,11.682 0.425,16.776c0.135,4.391 0.282,12.246 0.425,23.572c4.808,-2.834 8.565,-5.947 11.253,-9.346c2.684,-3.255 5.233,-8.071 7.646,-14.439c-2.692,0.286 -4.886,0.425 -6.584,0.425c-2.41,0 -4.6,-0.563 -6.584,-1.699c-1.699,-1.413 -2.622,-2.406 -2.758,-2.97c0,-1.274 1.41,-2.051 4.245,-2.337c4.105,-0.563 9.133,-1.911 15.077,-4.035c0.71,-3.113 1.062,-5.38 1.062,-6.797c0,-4.53 -0.776,-8.423 -2.336,-11.679c-0.711,-1.274 -1.059,-2.051 -1.059,-2.336c0,-0.564 0.494,-1.063 1.483,-1.487c2.409,-0.707 4.6,-1.062 6.584,-1.062c2.831,0 4.809,0.637 5.947,1.911c1.696,1.842 2.545,4.321 2.545,7.431c0,2.124 -0.564,4.815 -1.696,8.071c-0.143,0.425 -0.289,0.78 -0.425,1.062c5.094,-1.274 10.617,-1.911 16.564,-1.911c4.245,0 6.369,1.274 6.369,3.823c0,4.387 -5.311,7.72 -15.927,9.982c-4.387,0.989 -8.067,1.696 -11.041,2.121c-0.714,2.409 -1.776,4.673 -3.187,6.797c7.222,0.846 13.942,2.618 20.175,5.306c6.654,3.823 9.979,7.361 9.979,10.62c0,3.113 -1.839,4.673 -5.519,4.673c-5.522,0 -11.821,-1.838 -18.9,-5.522c-5.387,-2.409 -8.994,-4.954 -10.833,-7.646c-0.71,0.993 -1.348,1.912 -1.908,2.762c-4.673,4.673 -11.396,8.569 -20.174,11.682l0,5.095c-0.568,6.09 -3.398,9.627 -8.496,10.616c-3.538,-1.132 -5.384,-5.237 -5.519,-12.315c0,-1.557 0.135,-3.044 0.425,-4.457c0.135,-2.41 0.348,-8.569 0.637,-18.479c0.425,-9.48 0.637,-17.549 0.637,-24.206c0,-3.681 -2.054,-6.937 -6.16,-9.767c-1.139,-0.568 -1.772,-1.274 -1.912,-2.124c0,-1.984 1.556,-2.976 4.673,-2.976zm8.493,98.532c4.383,0.286 9.84,4.457 16.351,12.528c17.695,21.657 33.479,32.49 47.355,32.49c5.947,0 11.539,-1.201 16.776,-3.611c2.974,-0.988 4.46,-2.9 4.46,-5.734c0,-3.677 -9.346,-11.961 -28.03,-24.844c-0.29,0.567 -0.568,0.923 -0.85,1.062c-3.263,2.549 -6.372,3.823 -9.346,3.823c-4.534,0 -8.068,-1.348 -10.617,-4.035c-3.398,-4.105 -5.098,-9.559 -5.098,-16.352c0,-1.132 0.286,-1.699 0.85,-1.699c5.38,3.116 10.331,4.673 14.865,4.673c3.958,0 7.995,-0.85 12.107,-2.549c14.297,-7.079 24.276,-10.616 29.941,-10.616c12.315,0 22.507,1.56 30.579,4.673c6.507,2.831 9.767,6.229 9.767,10.191c0,4.388 -1.63,6.937 -4.886,7.643c-4.958,1.699 -11.396,2.549 -19.322,2.549c-6.236,0 -9.345,-0.563 -9.345,-1.699c7.928,-4.812 11.891,-8.206 11.891,-10.191c0,-3.112 -6.233,-4.673 -18.684,-4.673c-3.966,0 -7.859,0.78 -11.682,2.337c-2.688,1.274 -7.786,4.885 -15.29,10.828c4.105,0.286 8.419,1.063 12.953,2.337c8.207,2.549 16.139,7.295 23.785,14.23c7.929,7.079 11.891,12.737 11.891,16.985c0,3.398 -3.113,6.936 -9.342,10.62c-11.891,5.943 -25.836,8.917 -41.836,8.917c-9.06,0 -18.124,-4.179 -27.18,-12.528c-11.609,-10.056 -23.009,-25.554 -34.189,-46.505c0.002,-0.564 0.712,-0.85 2.126,-0.85z"/>
    <g id="svg_23">
     <path id="svg_24" d="m-1420.339,-284.797c3.791,0 5.684,1.963 5.684,5.889c0,2.028 -1.384,5.782 -4.16,11.265c4.263,-3.318 8.083,-6.801 11.47,-10.452c0.268,0 0.403,0.337 0.403,1.011c-3.651,7.713 -7.848,14.719 -12.583,21.01l0.406,20.604c0,1.556 -0.608,3.079 -1.827,4.566c-1.154,1.691 -2.029,2.538 -2.637,2.538c-2.033,-0.136 -3.047,-2.234 -3.047,-6.296c0,-0.879 0.304,-3.585 0.915,-8.115c0.469,-2.369 0.773,-4.636 0.912,-6.804c-5.618,6.159 -9.54,9.235 -11.773,9.235c-2.03,0 -3.043,-1.076 -3.043,-3.244s3.314,-9.031 9.946,-20.604c3.249,-5.276 4.871,-8.423 4.871,-9.44c0,-0.81 -0.341,-1.216 -1.015,-1.216c-8.459,4.468 -13.536,6.698 -15.223,6.698c-2.707,-0.136 -4.061,-0.744 -4.061,-1.828c7.445,-4.328 13.905,-8.488 19.387,-12.48c1.888,-1.561 3.683,-2.337 5.375,-2.337zm-6.9,-23.343c3.992,0 7.675,1.052 11.063,3.146c3.45,2.233 5.175,4.907 5.175,8.016c0,1.626 -0.747,2.439 -2.234,2.439c-3.384,0 -5.548,0.234 -6.493,0.71c-0.545,0.337 -1.084,0.506 -1.626,0.506l0,-0.403c0.674,-1.831 1.014,-3.182 1.014,-4.061c0,-1.491 -1.725,-3.622 -5.174,-6.395c-1.692,-1.352 -2.538,-2.197 -2.538,-2.538c0.001,-0.943 0.271,-1.42 0.813,-1.42zm21.109,15.224c1.081,0 2.029,0.136 2.842,0.406c1.557,0.747 2.739,2.337 3.553,4.769c0.472,-0.066 0.915,-0.132 1.318,-0.201c0.948,-0.136 1.996,-0.341 3.149,-0.608c-0.07,-1.557 -0.103,-3.146 -0.103,-4.771c-2.641,-0.201 -3.996,-1.08 -4.062,-2.637c0,-0.542 1.08,-1.048 3.248,-1.523c0.268,-0.066 0.542,-0.136 0.813,-0.205l0,-3.143c0,-1.084 -0.407,-3.047 -1.22,-5.889c0,-0.542 0.542,-0.813 1.626,-0.813c1.827,0 3.146,0.607 3.959,1.827c0.875,1.015 1.384,2.641 1.52,4.874l0,1.421c1.487,-0.41 2.908,-0.747 4.263,-1.018c0.066,-1.622 0.136,-3.45 0.205,-5.479c0,-1.15 -0.271,-2.571 -0.813,-4.263c-0.677,-2.095 -1.014,-3.314 -1.014,-3.655c0,-0.674 0.337,-1.014 1.014,-1.014c1.487,0.069 3.08,0.542 4.768,1.421c1.487,1.354 2.267,3.313 2.337,5.885c0,0.607 -0.205,1.318 -0.608,2.131c-0.341,1.626 -0.648,2.981 -0.916,4.062c0.744,-0.136 1.454,-0.238 2.131,-0.304c2.369,-0.271 4.464,-0.575 6.292,-0.916c0.879,-0.065 1.556,-0.103 2.033,-0.103c1.014,0 2.468,0.78 4.361,2.337c1.692,1.691 2.604,3.01 2.743,3.959c0,1.219 -0.648,2.435 -1.93,3.65c-0.813,1.22 -1.491,2.912 -2.029,5.076c-2.234,6.226 -3.791,10.488 -4.669,12.788c0.201,-0.066 0.439,-0.103 0.71,-0.103c2.234,0.069 4.058,0.578 5.479,1.523c2.571,1.626 3.86,3.01 3.86,4.16c0,0.678 -0.883,1.018 -2.641,1.018c-1.22,0 -2.673,-0.065 -4.365,-0.205c-2.637,-0.135 -5.211,-0.205 -7.712,-0.205c-3.314,0 -6.431,0.271 -9.338,0.813c-3.516,0.607 -7.343,1.56 -11.466,2.842c-2.099,0.879 -4.127,1.318 -6.09,1.318c-2.168,0 -4.197,-0.439 -6.09,-1.318c-1.285,-0.542 -1.963,-0.981 -2.028,-1.318c0,-0.205 0.238,-0.304 0.71,-0.304c2.641,-0.07 8.185,-1.421 16.644,-4.062c3.857,-1.15 7.105,-1.89 9.742,-2.234c2.168,-0.337 4.024,-0.641 5.585,-0.911c-0.813,-0.81 -1.22,-1.487 -1.22,-2.029c0,-0.268 0.033,-0.509 0.102,-0.71c-0.472,0.135 -1.014,0.237 -1.626,0.304c-7.372,0.948 -12.414,1.421 -15.121,1.421c-0.472,0 -0.846,-0.033 -1.117,-0.103c-0.135,2.099 -0.645,3.149 -1.52,3.149c-1.153,0 -2.098,-0.813 -2.842,-2.439c-0.813,-1.351 -1.662,-4.834 -2.538,-10.451c-0.407,-1.827 -1.154,-3.516 -2.234,-5.076c-0.608,-1.08 -0.912,-1.926 -0.912,-2.534c0.001,-0.409 0.404,-0.61 1.217,-0.61zm27.403,43.642c1.421,0 2.537,0.271 3.347,0.813c0.747,0.674 1.117,1.692 1.117,3.044c0,0.809 -0.575,2.098 -1.725,3.855c-1.421,1.286 -3.113,2.538 -5.076,3.758c5.343,-0.813 9.778,-1.253 13.297,-1.322c2.436,0.136 4.16,0.641 5.175,1.523c0.879,0.81 1.322,1.996 1.322,3.553c0,2.028 -0.883,3.043 -2.641,3.043c-0.948,-0.066 -2.201,-0.403 -3.754,-1.015c-1.966,-0.271 -4.098,-0.406 -6.394,-0.406c-5.955,0 -11.302,0.168 -16.037,0.509c-4.197,0.538 -8.591,1.52 -13.195,2.94c-1.285,0.41 -2.369,0.612 -3.248,0.612c-1.08,0 -2.164,-0.575 -3.245,-1.726c-0.813,-0.952 -1.219,-1.589 -1.219,-1.93c0,-0.271 0.337,-0.406 1.014,-0.406c2.64,-0.136 5.211,-0.575 7.712,-1.318c3.856,-1.285 8.357,-2.3 13.499,-3.047c0.407,-0.066 0.846,-0.132 1.322,-0.201c5.138,-3.586 7.713,-7.27 7.713,-11.063c0.002,-0.814 0.339,-1.216 1.016,-1.216zm-23.342,-12.583c1.15,0 2.164,0.099 3.043,0.3c0.813,0.205 1.454,0.443 1.93,0.711c10.082,-3.853 16.948,-5.815 20.599,-5.885c4.197,0 6.295,1.893 6.295,5.684c-0.07,1.354 -1.966,3.384 -5.684,6.09c0.135,0.473 0.202,0.879 0.202,1.216c-0.066,1.354 -0.949,2.028 -2.637,2.028c-3.454,0 -6.768,0.682 -9.946,2.033c-1.626,0.472 -3.047,0.743 -4.263,0.809c-0.341,0 -0.645,-0.029 -0.916,-0.099c-0.34,0.608 -0.846,0.912 -1.52,0.912c-1.084,0 -1.996,-0.439 -2.743,-1.318c-0.879,-0.879 -1.791,-3.113 -2.739,-6.698c-0.34,-1.015 -1.08,-1.996 -2.233,-2.94c-0.81,-0.611 -1.216,-1.15 -1.216,-1.626c0.001,-0.815 0.608,-1.217 1.828,-1.217zm2.231,14.816c1.626,0 3.08,0.81 4.365,2.432c1.285,1.831 1.93,3.523 1.93,5.076c0,1.758 -0.883,2.641 -2.641,2.641c-0.747,0 -1.659,-0.912 -2.739,-2.743c-1.421,-2.3 -2.131,-4.361 -2.131,-6.189c0,-0.814 0.406,-1.217 1.216,-1.217zm2.537,-31.362c0.744,-0.135 1.692,-0.304 2.842,-0.505c-0.407,-0.813 -0.645,-2.809 -0.71,-5.991c-0.608,0.069 -1.08,0.103 -1.421,0.103c-0.743,0 -1.487,-0.201 -2.23,-0.608c0.743,2.841 1.248,5.177 1.519,7.001zm4.567,25.781c0.813,-0.476 1.791,-1.018 2.944,-1.626c2.233,-1.626 4.225,-2.673 5.987,-3.146l3.655,-4.464c0,-0.271 -0.139,-0.41 -0.407,-0.41c-6.431,2.373 -11.1,3.721 -14.004,4.062c1.081,1.827 1.688,3.313 1.824,4.464l0,1.12l0.001,0zm0.915,-26.997c1.282,-0.271 2.571,-0.607 3.856,-1.018c0.473,-0.132 0.912,-0.268 1.318,-0.403c-0.341,-1.149 -0.542,-2.271 -0.608,-3.351c0,-0.473 0.033,-0.912 0.103,-1.318c-1.154,0.136 -2.201,0.268 -3.146,0.406l0,0.202c-0.406,2.435 -0.914,4.263 -1.523,5.482zm5.885,-11.975c0.135,-1.15 0.267,-2.571 0.407,-4.263c-1.762,0.542 -3.146,1.047 -4.161,1.52c-0.069,1.285 -0.139,2.674 -0.205,4.164c0.205,-0.069 0.406,-0.14 0.611,-0.205c0.946,-0.542 2.063,-0.945 3.348,-1.216zm4.67,9.335c1.354,-0.202 2.842,-0.305 4.464,-0.305c1.421,-3.047 2.472,-5.749 3.146,-8.118c1.084,-3.113 1.626,-5.007 1.626,-5.684c0,-0.678 -0.472,-1.015 -1.421,-1.015c-1.761,0 -4.328,0.234 -7.712,0.71c-0.14,0.945 -0.205,1.758 -0.205,2.436l0.103,2.029c0.813,-0.066 1.523,-0.1 2.131,-0.1c1.758,0 2.637,0.542 2.637,1.623c0,1.556 -1.486,2.739 -4.464,3.552l0,1.117c-0.001,1.356 -0.104,2.605 -0.305,3.755z"/>
     <path id="svg_25" d="m-1433.632,-213.752c1.963,0 3.585,0.439 4.87,1.318c1.762,1.084 2.641,2.468 2.641,4.16c0,7.983 -2.234,16.135 -6.698,24.459c1.215,4.062 1.828,10.082 1.828,18.065l0,0.103l3.651,-11.976c0.205,-0.677 0.473,-1.018 0.813,-1.018c0.267,0 0.406,0.271 0.406,0.813c-2.029,10.423 -3.622,19.183 -4.771,26.287c-0.473,3.248 -1.15,5.515 -2.029,6.797c-0.542,0.678 -1.117,1.018 -1.725,1.018c-2.299,0 -3.449,-1.691 -3.449,-5.075s0.201,-8.797 0.608,-16.238c0.268,-4.87 0.439,-9.067 0.509,-12.583c-2.505,3.516 -4.841,5.273 -7.005,5.273c-2.165,-0.402 -3.314,-1.758 -3.45,-4.058c0,-1.758 0.912,-4.328 2.739,-7.712c6.156,-12.382 9.236,-20.907 9.236,-25.576c0,-0.945 -0.135,-1.963 -0.407,-3.043c-0.002,-0.677 0.745,-1.014 2.233,-1.014zm42.627,-1.626c2.974,0 4.464,1.018 4.464,3.047c-0.069,1.216 -0.678,1.823 -1.827,1.823c-2.37,0 -4.702,0.242 -7.002,0.711c0.542,0.271 1.014,0.611 1.421,1.018c1.014,1.216 1.523,2.604 1.523,4.16c0,0.271 -0.037,0.608 -0.103,1.015c0.542,-0.136 0.978,-0.201 1.318,-0.201c2.164,0 3.248,0.879 3.248,2.637c0,0.879 -1.22,2.336 -3.655,4.365c-1.286,0.879 -2.402,1.659 -3.347,2.333c-0.139,0.677 -0.271,1.183 -0.406,1.523c1.149,-0.341 1.992,-0.51 2.538,-0.51c2.029,0 3.043,0.747 3.043,2.234c0,1.149 -0.747,2.028 -2.234,2.637c-1.014,0.205 -1.963,0.41 -2.842,0.611c0.473,0.069 0.879,0.169 1.219,0.304c1.487,0.678 2.539,1.897 3.146,3.655c0.341,0.813 0.711,1.691 1.117,2.637c6.156,-2.095 9.605,-3.146 10.353,-3.146c-0.747,-0.539 -1.659,-1.15 -2.739,-1.828c-1.691,-1.014 -2.538,-1.622 -2.538,-1.823c0,-0.542 0.135,-0.813 0.407,-0.813c3.379,0 6.427,0.674 9.133,2.029c2.842,1.56 4.263,3.384 4.263,5.479c0,0.341 -0.036,0.578 -0.103,0.71c0.066,0.14 0.103,0.242 0.103,0.308c0,1.15 -1.219,1.758 -3.654,1.824c-4.403,0.341 -8.695,1.018 -12.891,2.032c1.285,2.436 2.842,5.313 4.669,8.624c1.015,-1.963 1.523,-3.281 1.523,-3.955c0,-0.476 -0.238,-0.981 -0.71,-1.523c-0.608,-0.542 -0.912,-0.981 -0.912,-1.318c0,-0.542 0.267,-0.813 0.809,-0.813c0.949,0 2.165,0.373 3.655,1.113c1.421,0.813 2.164,1.662 2.234,2.541c0,2.978 -1.051,6.123 -3.146,9.438c2.296,3.651 4.871,7.745 7.713,12.279c1.823,2.369 3.311,3.959 4.464,4.768c0.879,0.477 1.86,0.711 2.944,0.711c0.337,0 0.71,-0.542 1.117,-1.619c0.135,-1.421 0.267,-5.145 0.402,-11.165c0,-1.22 0.103,-1.828 0.308,-1.828c0.469,0 0.912,0.776 1.318,2.337c1.15,4.464 1.725,9.063 1.725,13.799c0,3.183 -0.238,5.548 -0.711,7.104c-0.406,1.149 -0.912,1.729 -1.523,1.729c-2.029,0 -3.922,-0.579 -5.684,-1.729c-2.094,-1.355 -4.398,-3.754 -6.899,-7.207c-3.113,-5.142 -6.024,-9.976 -8.727,-14.51c-4.062,4.937 -7.852,7.544 -11.367,7.815c-0.747,0 -1.154,-0.14 -1.22,-0.406c4.127,-3.856 7.372,-7.951 9.745,-12.279c-2.439,-4.673 -4.637,-8.965 -6.6,-12.891c-2.907,0.607 -5.819,1.354 -8.727,2.233c0.066,0.271 0.103,0.608 0.103,1.011l0,3.758c1.216,-0.743 2.571,-1.454 4.058,-2.132c0.268,0 0.406,0.14 0.406,0.407c0,0.948 -1.014,2.369 -3.043,4.263c-0.546,0.472 -1.018,0.948 -1.421,1.421l0,13.498c0,2.296 -0.406,4.024 -1.22,5.175c-0.747,1.084 -1.56,1.626 -2.435,1.626c-2.234,0 -5.314,-3.691 -9.236,-11.063c-3.043,1.827 -4.973,2.739 -5.786,2.739c-1.692,0 -2.637,-1.486 -2.842,-4.464c0,-0.879 0.206,-1.355 0.612,-1.421c1.556,-0.066 2.978,-0.477 4.263,-1.22c2.029,-0.875 5.479,-2.67 10.35,-5.38l0,-6.086c-1.824,0.607 -3.688,1.252 -5.581,1.926c-4.464,2.029 -7.951,3.047 -10.452,3.047c-1.421,0 -2.168,-0.271 -2.233,-0.813c0,-0.205 0.641,-0.542 1.926,-1.019c6.09,-2.432 11.503,-4.629 16.242,-6.592c-0.205,-1.626 -0.71,-2.742 -1.523,-3.351c-0.07,-0.069 -0.103,-0.136 -0.103,-0.201c-2.3,0.542 -3.958,0.81 -4.973,0.81c-1.487,0 -2.23,-0.268 -2.23,-0.81c0,-0.41 0.571,-0.78 1.725,-1.121c8.525,-3.384 13.359,-5.104 14.513,-5.174c1.758,0 2.637,0.611 2.637,1.827c0,0.674 -0.608,1.285 -1.828,1.827c-1.688,0.678 -3.417,1.22 -5.175,1.622c0.473,0.205 0.912,0.477 1.319,0.813c0.542,0.542 0.948,1.149 1.219,1.827c2.772,-1.153 5.241,-2.131 7.409,-2.944c-1.828,-3.856 -3.351,-6.259 -4.567,-7.203c-0.472,-0.205 -0.747,-0.341 -0.813,-0.41c-0.678,0.139 -1.285,0.241 -1.827,0.308c-2.095,0.337 -3.651,0.505 -4.669,0.505c-1.761,0 -2.637,-0.402 -2.637,-1.216c0,-0.271 0.472,-0.607 1.421,-1.018c0.608,-0.201 1.15,-0.403 1.623,-0.608c2.435,-1.89 4.263,-3.684 5.482,-5.376c0.066,-0.065 0.103,-0.139 0.103,-0.205c0.469,-1.014 0.846,-2.164 1.113,-3.449c-3.585,2.233 -6.833,3.347 -9.741,3.347c-0.949,0 -1.794,-0.168 -2.538,-0.505c-0.407,-0.205 -0.645,-0.439 -0.711,-0.711c0,-0.205 0.645,-0.472 1.93,-0.813c4.871,-2.234 8.792,-3.856 11.77,-4.871c0.066,-0.607 0.103,-1.285 0.103,-2.028c0,-2.099 -0.645,-3.655 -1.926,-4.669l-0.103,-0.103c-0.949,0.34 -1.996,0.743 -3.146,1.219c-2.373,1.282 -4.365,1.992 -5.987,2.132c-1.22,0 -2.202,-0.238 -2.944,-0.711c-0.678,-0.271 -1.051,-0.574 -1.117,-0.915c0,-0.473 0.169,-0.711 0.509,-0.711c2.296,0 5.544,-1.216 9.741,-3.654c4.733,-2.703 8.692,-4.091 11.875,-4.16zm-15.835,55.518c-1.762,1.421 -3.791,2.805 -6.087,4.16c1.282,1.622 2.571,2.436 3.856,2.436c1.483,0 2.23,-0.78 2.23,-2.333l0,-4.263l0.001,0zm-1.216,-64.447c0.406,0 1.08,1.216 2.028,3.651c0.542,1.084 1.15,1.622 1.828,1.622c0.267,0 1.216,-0.469 2.842,-1.421l0,0.612c-1.692,4.061 -3.314,6.09 -4.871,6.09c-2.706,0 -4.061,-1.421 -4.061,-4.263c0,-1.692 0.337,-3.179 1.015,-4.468c0.541,-1.214 0.947,-1.823 1.219,-1.823zm19.687,-4.06c0.813,0 1.963,0.442 3.449,1.321c1.421,0.674 2.168,1.385 2.234,2.132c0,1.486 -1.015,2.974 -3.043,4.46c-3.655,2.842 -6.969,4.333 -9.946,4.468c-0.813,0 -1.219,-0.135 -1.219,-0.406c2.64,-1.421 4.735,-3.08 6.291,-4.973c2.033,-1.828 3.047,-3.007 3.047,-3.549c0,-0.341 -0.271,-0.78 -0.813,-1.322c-0.678,-0.473 -1.015,-0.912 -1.015,-1.322c0.001,-0.539 0.338,-0.809 1.015,-0.809z"/>
    </g>
   </g>
  </g>
  <g id="svg_26"/>
 </g>
</svg>